Jump_normalized_Motion_pl07
version=1
nRows=8
nColumns=43
inDegrees=yes
endheader
time		pelvis_tilt		pelvis_list		pelvis_rotation		pelvis_tx		pelvis_ty		pelvis_tz		hip_flexion_r		hip_adduction_r		hip_rotation_r		knee_angle_r		ankle_angle_r		subtalar_angle_r		mtp_angle_r		hip_flexion_l		hip_adduction_l		hip_rotation_l		knee_angle_l		ankle_angle_l		subtalar_angle_l		mtp_angle_l		lumbar_extension		lumbar_bending		lumbar_rotation		neck_flexion		neck_lateral_bending		neck_rotation		arm_flex_r		arm_add_r		arm_rot_r		elbow_flex_r		pro_sup_r		wrist_flex_r		wrist_dev_r		hand_finger_flex_r		arm_flex_l		arm_add_l		arm_rot_l		elbow_flex_l		pro_sup_l		wrist_flex_l		wrist_dev_l		hand_finger_flex_l		
0.056667		2.993417		-21.105963		89.741228		0.076596		1.772533		1.755868		78.284587		-0.907328		1.284808		-143.689834		25.322039		5.843181		17.638122		81.464804		-8.795703		18.192073		-143.612116		13.358184		27.516041		41.054321		-40.082185		-0.104249		5.873049		41.615266		-0.046968		-5.623436		96.818941		-23.557307		12.837888		72.059093		99.312611		-6.442820		-10.512169		6.201694		100.029960		-13.996561		24.013505		46.626980		101.284984		-17.289853		-5.396437		12.312094		
0.058308		2.983255		-21.135722		89.706248		0.076380		1.773257		1.753031		77.842549		-0.932132		1.322337		-143.513772		25.281702		5.869483		17.720928		81.188390		-8.766114		18.150701		-143.455383		12.816586		27.567125		41.118165		-39.941541		-0.083074		5.929337		41.477844		-0.100388		-5.591240		97.194082		-23.507559		12.974222		71.974555		99.504134		-6.388601		-10.474341		6.314916		100.226765		-13.881662		23.904144		46.502087		101.294051		-17.272926		-5.321997		12.297484		
0.059949		2.966147		-21.006332		89.666799		0.076094		1.774090		1.750105		77.225823		-0.965797		1.387861		-143.358173		25.246720		5.918381		17.889218		80.787088		-8.739356		18.102124		-143.307331		11.799184		27.664227		41.248470		-39.951047		-0.052086		5.993414		41.248026		-0.229455		-5.527530		97.707287		-23.487354		13.257825		71.728445		99.883845		-6.279369		-10.385718		6.536393		100.476560		-13.688204		23.711427		46.229822		101.313420		-17.232625		-5.176198		12.272639		
0.061591		2.932693		-21.096112		89.645510		0.075851		1.774748		1.747324		76.870625		-1.049480		1.429523		-143.184181		25.220431		5.947590		17.986222		80.580904		-8.675093		18.036716		-143.143863		11.361266		27.740574		41.341048		-39.749367		-0.036382		5.992502		41.188918		-0.241936		-5.527228		98.088544		-23.374076		13.384911		71.568139		100.123255		-6.230129		-10.349750		6.633648		100.690155		-13.564036		23.563640		46.040358		101.320497		-17.212198		-5.095590		12.254076		
0.063232		2.909032		-21.148223		89.618587		0.075631		1.775440		1.744473		76.462997		-1.111470		1.468040		-143.005806		25.181712		5.989451		18.094674		80.337169		-8.629496		17.982727		-142.977007		10.849811		27.821165		41.440268		-39.578996		-0.018870		6.017652		41.063264		-0.275575		-5.512017		98.440995		-23.289825		13.508471		71.439356		100.411003		-6.169781		-10.338638		6.734821		100.879142		-13.436400		23.413470		45.870628		101.337546		-17.180127		-5.020737		12.241012		
0.064874		2.898175		-21.144934		89.583952		0.075439		1.776183		1.741529		75.979975		-1.144560		1.503594		-142.822718		25.127223		6.047791		18.220146		80.039129		-8.608546		17.943577		-142.806555		10.224231		27.907841		41.549220		-39.455813		0.001490		6.077717		40.848273		-0.340075		-5.475799		98.762887		-23.245275		13.633821		71.346324		100.764287		-6.093278		-10.356306		6.845751		101.039008		-13.301726		23.258571		45.722130		101.367458		-17.132816		-4.950459		12.234527		
0.066515		2.891891		-21.188380		89.555759		0.075288		1.776882		1.738662		75.563069		-1.169648		1.533550		-142.635237		25.085559		6.101187		18.366153		79.805677		-8.574924		17.917937		-142.633629		9.665374		27.983090		41.689680		-39.294804		0.023293		6.118179		40.733167		-0.379456		-5.459593		99.086297		-23.139783		13.726563		71.212230		101.165238		-6.023283		-10.382182		6.941558		101.226665		-13.166215		23.083926		45.530384		101.416371		-17.081012		-4.878772		12.228482		
0.068157		2.882054		-21.225573		89.520402		0.075159		1.777585		1.735769		75.137991		-1.187213		1.566557		-142.446178		25.036830		6.148145		18.519461		79.565275		-8.549594		17.886512		-142.457455		9.095467		28.051572		41.838724		-39.135131		0.035806		6.161646		40.577750		-0.414371		-5.438309		99.375709		-23.039620		13.806989		71.102905		101.581664		-5.955345		-10.416041		7.031573		101.395856		-13.037024		22.910347		45.357530		101.477191		-17.028339		-4.816375		12.225249		
